<svg xmlns="http://www.w3.org/2000/svg" viewBox="0 0 32 32" fill="none" aria-hidden="true">
  <rect width="32" height="32" rx="7" fill="#1e1a16"/>
  <path
    d="M8 9h7a3 3 0 0 1 3 3v12a2 2 0 0 0-2-2H8V9Z"
    stroke="#c9a86c"
    stroke-width="1.5"
    stroke-linejoin="round"
  />
  <path
    d="M24 9h-7a3 3 0 0 0-3 3v12a2 2 0 0 1 2-2h8V9Z"
    stroke="#c9a86c"
    stroke-width="1.5"
    stroke-linejoin="round"
  />
  <path stroke="#c9a86c" stroke-width="1.2" stroke-linecap="round" d="M11 14h5M11 17h5M11 20h4"/>
  <path stroke="#8b7355" stroke-width="1.2" stroke-linecap="round" d="M21 14h4M21 17h4M21 20h3"/>
  <circle cx="16" cy="8" r="1.5" fill="#c9a86c"/>
</svg>
